<mxfile host="app.diagrams.net" modified="2023-07-24T05:56:46.637Z" agent="Mozilla/5.0 (Windows NT 10.0; Win64; x64) AppleWebKit/537.36 (KHTML, like Gecko) Chrome/115.0.0.0 Safari/537.36" etag="TdfQNMLcHi0Kf9Ijn5wh" version="21.6.5" type="github">
  <diagram name="第 1 页" id="p6_2xnSwuZW2Kqpdt6UJ">
    <mxGraphModel dx="2074" dy="1118" grid="1" gridSize="10" guides="1" tooltips="1" connect="1" arrows="1" fold="1" page="1" pageScale="1" pageWidth="827" pageHeight="1169" math="0" shadow="0">
      <root>
        <mxCell id="0" />
        <mxCell id="1" parent="0" />
        <mxCell id="SQLaJ-jksFYdW4yue1jR-1" value="磁盘1" style="rounded=0;whiteSpace=wrap;html=1;" vertex="1" parent="1">
          <mxGeometry x="90" y="330" width="70" height="30" as="geometry" />
        </mxCell>
        <mxCell id="SQLaJ-jksFYdW4yue1jR-2" value="磁盘1" style="rounded=0;whiteSpace=wrap;html=1;" vertex="1" parent="1">
          <mxGeometry x="221" y="330" width="70" height="30" as="geometry" />
        </mxCell>
        <mxCell id="SQLaJ-jksFYdW4yue1jR-3" value="磁盘1" style="rounded=0;whiteSpace=wrap;html=1;" vertex="1" parent="1">
          <mxGeometry x="351" y="330" width="70" height="30" as="geometry" />
        </mxCell>
        <mxCell id="SQLaJ-jksFYdW4yue1jR-4" value="磁盘1" style="rounded=0;whiteSpace=wrap;html=1;" vertex="1" parent="1">
          <mxGeometry x="478" y="330" width="70" height="30" as="geometry" />
        </mxCell>
        <mxCell id="SQLaJ-jksFYdW4yue1jR-5" value="磁盘2" style="rounded=0;whiteSpace=wrap;html=1;" vertex="1" parent="1">
          <mxGeometry x="221" y="400" width="70" height="30" as="geometry" />
        </mxCell>
        <mxCell id="SQLaJ-jksFYdW4yue1jR-6" value="磁盘2" style="rounded=0;whiteSpace=wrap;html=1;" vertex="1" parent="1">
          <mxGeometry x="351" y="400" width="70" height="30" as="geometry" />
        </mxCell>
        <mxCell id="SQLaJ-jksFYdW4yue1jR-7" value="磁盘2" style="rounded=0;whiteSpace=wrap;html=1;" vertex="1" parent="1">
          <mxGeometry x="478" y="400" width="70" height="30" as="geometry" />
        </mxCell>
        <mxCell id="SQLaJ-jksFYdW4yue1jR-9" value="磁盘3" style="rounded=0;whiteSpace=wrap;html=1;" vertex="1" parent="1">
          <mxGeometry x="351" y="470" width="70" height="30" as="geometry" />
        </mxCell>
        <mxCell id="SQLaJ-jksFYdW4yue1jR-10" value="磁盘3" style="rounded=0;whiteSpace=wrap;html=1;" vertex="1" parent="1">
          <mxGeometry x="478" y="470" width="70" height="30" as="geometry" />
        </mxCell>
        <mxCell id="SQLaJ-jksFYdW4yue1jR-14" value="快照点s1" style="text;html=1;strokeColor=none;fillColor=none;align=center;verticalAlign=middle;whiteSpace=wrap;rounded=0;" vertex="1" parent="1">
          <mxGeometry x="95" y="250" width="60" height="30" as="geometry" />
        </mxCell>
        <mxCell id="SQLaJ-jksFYdW4yue1jR-15" value="快照点s2" style="text;html=1;strokeColor=none;fillColor=none;align=center;verticalAlign=middle;whiteSpace=wrap;rounded=0;" vertex="1" parent="1">
          <mxGeometry x="226" y="250" width="60" height="30" as="geometry" />
        </mxCell>
        <mxCell id="SQLaJ-jksFYdW4yue1jR-16" value="快照点s3" style="text;html=1;strokeColor=none;fillColor=none;align=center;verticalAlign=middle;whiteSpace=wrap;rounded=0;" vertex="1" parent="1">
          <mxGeometry x="356" y="250" width="60" height="30" as="geometry" />
        </mxCell>
        <mxCell id="SQLaJ-jksFYdW4yue1jR-17" value="快照点s4" style="text;html=1;strokeColor=none;fillColor=none;align=center;verticalAlign=middle;whiteSpace=wrap;rounded=0;" vertex="1" parent="1">
          <mxGeometry x="483" y="250" width="60" height="30" as="geometry" />
        </mxCell>
        <mxCell id="SQLaJ-jksFYdW4yue1jR-18" value="" style="endArrow=none;dashed=1;html=1;dashPattern=1 3;strokeWidth=2;rounded=0;" edge="1" parent="1">
          <mxGeometry width="50" height="50" relative="1" as="geometry">
            <mxPoint x="79.5" y="240" as="sourcePoint" />
            <mxPoint x="79.5" y="560" as="targetPoint" />
          </mxGeometry>
        </mxCell>
        <mxCell id="SQLaJ-jksFYdW4yue1jR-19" value="" style="endArrow=none;dashed=1;html=1;dashPattern=1 3;strokeWidth=2;rounded=0;" edge="1" parent="1">
          <mxGeometry width="50" height="50" relative="1" as="geometry">
            <mxPoint x="79.5" y="240" as="sourcePoint" />
            <mxPoint x="169.5" y="240" as="targetPoint" />
          </mxGeometry>
        </mxCell>
        <mxCell id="SQLaJ-jksFYdW4yue1jR-20" value="" style="endArrow=none;dashed=1;html=1;dashPattern=1 3;strokeWidth=2;rounded=0;" edge="1" parent="1">
          <mxGeometry width="50" height="50" relative="1" as="geometry">
            <mxPoint x="169.5" y="240" as="sourcePoint" />
            <mxPoint x="169.5" y="560" as="targetPoint" />
          </mxGeometry>
        </mxCell>
        <mxCell id="SQLaJ-jksFYdW4yue1jR-21" value="" style="endArrow=none;dashed=1;html=1;dashPattern=1 3;strokeWidth=2;rounded=0;" edge="1" parent="1">
          <mxGeometry width="50" height="50" relative="1" as="geometry">
            <mxPoint x="79.5" y="560" as="sourcePoint" />
            <mxPoint x="169.5" y="560" as="targetPoint" />
          </mxGeometry>
        </mxCell>
        <mxCell id="SQLaJ-jksFYdW4yue1jR-22" value="" style="endArrow=none;dashed=1;html=1;dashPattern=1 3;strokeWidth=2;rounded=0;" edge="1" parent="1">
          <mxGeometry width="50" height="50" relative="1" as="geometry">
            <mxPoint x="210.5" y="240" as="sourcePoint" />
            <mxPoint x="210.5" y="560" as="targetPoint" />
          </mxGeometry>
        </mxCell>
        <mxCell id="SQLaJ-jksFYdW4yue1jR-23" value="" style="endArrow=none;dashed=1;html=1;dashPattern=1 3;strokeWidth=2;rounded=0;" edge="1" parent="1">
          <mxGeometry width="50" height="50" relative="1" as="geometry">
            <mxPoint x="210.5" y="240" as="sourcePoint" />
            <mxPoint x="300.5" y="240" as="targetPoint" />
          </mxGeometry>
        </mxCell>
        <mxCell id="SQLaJ-jksFYdW4yue1jR-24" value="" style="endArrow=none;dashed=1;html=1;dashPattern=1 3;strokeWidth=2;rounded=0;" edge="1" parent="1">
          <mxGeometry width="50" height="50" relative="1" as="geometry">
            <mxPoint x="300.5" y="240" as="sourcePoint" />
            <mxPoint x="300.5" y="560" as="targetPoint" />
          </mxGeometry>
        </mxCell>
        <mxCell id="SQLaJ-jksFYdW4yue1jR-25" value="" style="endArrow=none;dashed=1;html=1;dashPattern=1 3;strokeWidth=2;rounded=0;" edge="1" parent="1">
          <mxGeometry width="50" height="50" relative="1" as="geometry">
            <mxPoint x="210.5" y="560" as="sourcePoint" />
            <mxPoint x="300.5" y="560" as="targetPoint" />
          </mxGeometry>
        </mxCell>
        <mxCell id="SQLaJ-jksFYdW4yue1jR-26" value="" style="endArrow=none;dashed=1;html=1;dashPattern=1 3;strokeWidth=2;rounded=0;" edge="1" parent="1">
          <mxGeometry width="50" height="50" relative="1" as="geometry">
            <mxPoint x="340.5" y="240" as="sourcePoint" />
            <mxPoint x="340.5" y="560" as="targetPoint" />
          </mxGeometry>
        </mxCell>
        <mxCell id="SQLaJ-jksFYdW4yue1jR-27" value="" style="endArrow=none;dashed=1;html=1;dashPattern=1 3;strokeWidth=2;rounded=0;" edge="1" parent="1">
          <mxGeometry width="50" height="50" relative="1" as="geometry">
            <mxPoint x="340.5" y="240" as="sourcePoint" />
            <mxPoint x="430.5" y="240" as="targetPoint" />
          </mxGeometry>
        </mxCell>
        <mxCell id="SQLaJ-jksFYdW4yue1jR-28" value="" style="endArrow=none;dashed=1;html=1;dashPattern=1 3;strokeWidth=2;rounded=0;" edge="1" parent="1">
          <mxGeometry width="50" height="50" relative="1" as="geometry">
            <mxPoint x="430.5" y="240" as="sourcePoint" />
            <mxPoint x="430.5" y="560" as="targetPoint" />
          </mxGeometry>
        </mxCell>
        <mxCell id="SQLaJ-jksFYdW4yue1jR-29" value="" style="endArrow=none;dashed=1;html=1;dashPattern=1 3;strokeWidth=2;rounded=0;" edge="1" parent="1">
          <mxGeometry width="50" height="50" relative="1" as="geometry">
            <mxPoint x="340.5" y="560" as="sourcePoint" />
            <mxPoint x="430.5" y="560" as="targetPoint" />
          </mxGeometry>
        </mxCell>
        <mxCell id="SQLaJ-jksFYdW4yue1jR-30" value="" style="endArrow=none;dashed=1;html=1;dashPattern=1 3;strokeWidth=2;rounded=0;" edge="1" parent="1">
          <mxGeometry width="50" height="50" relative="1" as="geometry">
            <mxPoint x="472" y="240" as="sourcePoint" />
            <mxPoint x="472" y="560" as="targetPoint" />
          </mxGeometry>
        </mxCell>
        <mxCell id="SQLaJ-jksFYdW4yue1jR-31" value="" style="endArrow=none;dashed=1;html=1;dashPattern=1 3;strokeWidth=2;rounded=0;" edge="1" parent="1">
          <mxGeometry width="50" height="50" relative="1" as="geometry">
            <mxPoint x="472" y="240" as="sourcePoint" />
            <mxPoint x="562" y="240" as="targetPoint" />
          </mxGeometry>
        </mxCell>
        <mxCell id="SQLaJ-jksFYdW4yue1jR-32" value="" style="endArrow=none;dashed=1;html=1;dashPattern=1 3;strokeWidth=2;rounded=0;" edge="1" parent="1">
          <mxGeometry width="50" height="50" relative="1" as="geometry">
            <mxPoint x="562" y="240" as="sourcePoint" />
            <mxPoint x="562" y="560" as="targetPoint" />
          </mxGeometry>
        </mxCell>
        <mxCell id="SQLaJ-jksFYdW4yue1jR-33" value="" style="endArrow=none;dashed=1;html=1;dashPattern=1 3;strokeWidth=2;rounded=0;" edge="1" parent="1">
          <mxGeometry width="50" height="50" relative="1" as="geometry">
            <mxPoint x="472" y="560" as="sourcePoint" />
            <mxPoint x="562" y="560" as="targetPoint" />
          </mxGeometry>
        </mxCell>
        <mxCell id="SQLaJ-jksFYdW4yue1jR-43" value="磁盘1" style="rounded=0;whiteSpace=wrap;html=1;" vertex="1" parent="1">
          <mxGeometry x="606" y="330" width="70" height="30" as="geometry" />
        </mxCell>
        <mxCell id="SQLaJ-jksFYdW4yue1jR-44" value="磁盘2" style="rounded=0;whiteSpace=wrap;html=1;" vertex="1" parent="1">
          <mxGeometry x="606" y="400" width="70" height="30" as="geometry" />
        </mxCell>
        <mxCell id="SQLaJ-jksFYdW4yue1jR-45" value="磁盘3" style="rounded=0;whiteSpace=wrap;html=1;" vertex="1" parent="1">
          <mxGeometry x="606" y="470" width="70" height="30" as="geometry" />
        </mxCell>
        <mxCell id="SQLaJ-jksFYdW4yue1jR-46" value="快照点s5" style="text;html=1;strokeColor=none;fillColor=none;align=center;verticalAlign=middle;whiteSpace=wrap;rounded=0;" vertex="1" parent="1">
          <mxGeometry x="611" y="250" width="60" height="30" as="geometry" />
        </mxCell>
        <mxCell id="SQLaJ-jksFYdW4yue1jR-47" value="" style="endArrow=none;dashed=1;html=1;dashPattern=1 3;strokeWidth=2;rounded=0;" edge="1" parent="1">
          <mxGeometry width="50" height="50" relative="1" as="geometry">
            <mxPoint x="600" y="240" as="sourcePoint" />
            <mxPoint x="600" y="560" as="targetPoint" />
          </mxGeometry>
        </mxCell>
        <mxCell id="SQLaJ-jksFYdW4yue1jR-48" value="" style="endArrow=none;dashed=1;html=1;dashPattern=1 3;strokeWidth=2;rounded=0;" edge="1" parent="1">
          <mxGeometry width="50" height="50" relative="1" as="geometry">
            <mxPoint x="600" y="240" as="sourcePoint" />
            <mxPoint x="690" y="240" as="targetPoint" />
          </mxGeometry>
        </mxCell>
        <mxCell id="SQLaJ-jksFYdW4yue1jR-49" value="" style="endArrow=none;dashed=1;html=1;dashPattern=1 3;strokeWidth=2;rounded=0;" edge="1" parent="1">
          <mxGeometry width="50" height="50" relative="1" as="geometry">
            <mxPoint x="690" y="240" as="sourcePoint" />
            <mxPoint x="690" y="560" as="targetPoint" />
          </mxGeometry>
        </mxCell>
        <mxCell id="SQLaJ-jksFYdW4yue1jR-50" value="" style="endArrow=none;dashed=1;html=1;dashPattern=1 3;strokeWidth=2;rounded=0;" edge="1" parent="1">
          <mxGeometry width="50" height="50" relative="1" as="geometry">
            <mxPoint x="600" y="560" as="sourcePoint" />
            <mxPoint x="690" y="560" as="targetPoint" />
          </mxGeometry>
        </mxCell>
        <mxCell id="SQLaJ-jksFYdW4yue1jR-52" value="" style="endArrow=classic;html=1;rounded=0;" edge="1" parent="1">
          <mxGeometry width="50" height="50" relative="1" as="geometry">
            <mxPoint x="180" y="416" as="sourcePoint" />
            <mxPoint x="200" y="416" as="targetPoint" />
          </mxGeometry>
        </mxCell>
        <mxCell id="SQLaJ-jksFYdW4yue1jR-53" value="" style="endArrow=classic;html=1;rounded=0;" edge="1" parent="1">
          <mxGeometry width="50" height="50" relative="1" as="geometry">
            <mxPoint x="310" y="416" as="sourcePoint" />
            <mxPoint x="330" y="416" as="targetPoint" />
          </mxGeometry>
        </mxCell>
        <mxCell id="SQLaJ-jksFYdW4yue1jR-54" value="" style="endArrow=classic;html=1;rounded=0;" edge="1" parent="1">
          <mxGeometry width="50" height="50" relative="1" as="geometry">
            <mxPoint x="441" y="416" as="sourcePoint" />
            <mxPoint x="461" y="416" as="targetPoint" />
          </mxGeometry>
        </mxCell>
        <mxCell id="SQLaJ-jksFYdW4yue1jR-55" value="" style="endArrow=classic;html=1;rounded=0;" edge="1" parent="1">
          <mxGeometry width="50" height="50" relative="1" as="geometry">
            <mxPoint x="572" y="416" as="sourcePoint" />
            <mxPoint x="592" y="416" as="targetPoint" />
          </mxGeometry>
        </mxCell>
        <mxCell id="SQLaJ-jksFYdW4yue1jR-56" value="" style="endArrow=none;html=1;rounded=0;" edge="1" parent="1">
          <mxGeometry width="50" height="50" relative="1" as="geometry">
            <mxPoint x="10" y="313" as="sourcePoint" />
            <mxPoint x="720" y="313" as="targetPoint" />
          </mxGeometry>
        </mxCell>
        <mxCell id="SQLaJ-jksFYdW4yue1jR-57" value="" style="endArrow=none;html=1;rounded=0;" edge="1" parent="1">
          <mxGeometry width="50" height="50" relative="1" as="geometry">
            <mxPoint x="10" y="513" as="sourcePoint" />
            <mxPoint x="720" y="513" as="targetPoint" />
          </mxGeometry>
        </mxCell>
        <mxCell id="SQLaJ-jksFYdW4yue1jR-58" value="" style="endArrow=none;html=1;rounded=0;" edge="1" parent="1">
          <mxGeometry width="50" height="50" relative="1" as="geometry">
            <mxPoint x="10" y="313" as="sourcePoint" />
            <mxPoint x="10" y="513" as="targetPoint" />
          </mxGeometry>
        </mxCell>
        <mxCell id="SQLaJ-jksFYdW4yue1jR-59" value="" style="endArrow=none;html=1;rounded=0;" edge="1" parent="1">
          <mxGeometry width="50" height="50" relative="1" as="geometry">
            <mxPoint x="720" y="313" as="sourcePoint" />
            <mxPoint x="720" y="513" as="targetPoint" />
          </mxGeometry>
        </mxCell>
        <mxCell id="SQLaJ-jksFYdW4yue1jR-60" value="t1" style="text;html=1;strokeColor=none;fillColor=none;align=center;verticalAlign=middle;whiteSpace=wrap;rounded=0;" vertex="1" parent="1">
          <mxGeometry x="90" y="570" width="60" height="30" as="geometry" />
        </mxCell>
        <mxCell id="SQLaJ-jksFYdW4yue1jR-61" value="t2" style="text;html=1;strokeColor=none;fillColor=none;align=center;verticalAlign=middle;whiteSpace=wrap;rounded=0;" vertex="1" parent="1">
          <mxGeometry x="221" y="570" width="60" height="30" as="geometry" />
        </mxCell>
        <mxCell id="SQLaJ-jksFYdW4yue1jR-62" value="t3" style="text;html=1;strokeColor=none;fillColor=none;align=center;verticalAlign=middle;whiteSpace=wrap;rounded=0;" vertex="1" parent="1">
          <mxGeometry x="356" y="570" width="60" height="30" as="geometry" />
        </mxCell>
        <mxCell id="SQLaJ-jksFYdW4yue1jR-63" value="t4" style="text;html=1;strokeColor=none;fillColor=none;align=center;verticalAlign=middle;whiteSpace=wrap;rounded=0;" vertex="1" parent="1">
          <mxGeometry x="483" y="570" width="60" height="30" as="geometry" />
        </mxCell>
        <mxCell id="SQLaJ-jksFYdW4yue1jR-64" value="t5" style="text;html=1;strokeColor=none;fillColor=none;align=center;verticalAlign=middle;whiteSpace=wrap;rounded=0;" vertex="1" parent="1">
          <mxGeometry x="611" y="570" width="60" height="30" as="geometry" />
        </mxCell>
        <mxCell id="SQLaJ-jksFYdW4yue1jR-65" value="系&lt;br&gt;统&lt;br&gt;磁&lt;br&gt;盘&lt;br&gt;组" style="text;html=1;strokeColor=none;fillColor=none;align=center;verticalAlign=middle;whiteSpace=wrap;rounded=0;" vertex="1" parent="1">
          <mxGeometry x="10" y="393" width="60" height="30" as="geometry" />
        </mxCell>
      </root>
    </mxGraphModel>
  </diagram>
</mxfile>
